{
  "accessors": [
    {
      "name": "Sphere.2-Mesh_0_positions",
      "componentType": 5126,
      "count": 323,
      "min": [
        17.04409408569336,
        -0.5,
        -14.158976554870605
      ],
      "max": [
        18.04409408569336,
        0.5,
        -13.158976554870605
      ],
      "type": "VEC3",
      "bufferView": 0,
      "byteOffset": 0
    },
    {
      "name": "Sphere.2-Mesh_0_normals",
      "componentType": 5126,
      "count": 323,
      "min": [
        -1,
        -1,
        -1
      ],
      "max": [
        1,
        1,
        1
      ],
      "type": "VEC3",
      "bufferView": 1,
      "byteOffset": 0
    },
    {
      "name": "Sphere.2-Mesh_0_texcoords",
      "componentType": 5126,
      "count": 323,
      "min": [
        0,
        1
      ],
      "max": [
        1,
        2
      ],
      "type": "VEC2",
      "bufferView": 2,
      "byteOffset": 0
    },
    {
      "name": "Sphere.2-Mesh_0_indices",
      "componentType": 5123,
      "count": 1584,
      "min": [
        0
      ],
      "max": [
        322
      ],
      "type": "SCALAR",
      "bufferView": 3,
      "byteOffset": 0
    },
    {
      "name": "Cone.2-Mesh_0_positions",
      "componentType": 5126,
      "count": 442,
      "min": [
        17.04409408569336,
        -0.5,
        -17.363943099975586
      ],
      "max": [
        18.04409408569336,
        0.5,
        -16.363943099975586
      ],
      "type": "VEC3",
      "bufferView": 0,
      "byteOffset": 3876
    },
    {
      "name": "Cone.2-Mesh_0_normals",
      "componentType": 5126,
      "count": 442,
      "min": [
        -0.8944271802902222,
        -1,
        -0.8944271802902222
      ],
      "max": [
        0.8944271802902222,
        0.44721364974975586,
        0.8944271802902222
      ],
      "type": "VEC3",
      "bufferView": 1,
      "byteOffset": 3876
    },
    {
      "name": "Cone.2-Mesh_0_texcoords",
      "componentType": 5126,
      "count": 442,
      "min": [
        0,
        1
      ],
      "max": [
        1,
        2
      ],
      "type": "VEC2",
      "bufferView": 2,
      "byteOffset": 2584
    },
    {
      "name": "Cone.2-Mesh_0_indices",
      "componentType": 5123,
      "count": 2160,
      "min": [
        0
      ],
      "max": [
        441
      ],
      "type": "SCALAR",
      "bufferView": 3,
      "byteOffset": 3168
    },
    {
      "name": "Cube.2-Mesh_0_positions",
      "componentType": 5126,
      "count": 24,
      "min": [
        17.04409408569336,
        -0.5,
        -10.832540512084961
      ],
      "max": [
        18.04409408569336,
        0.5,
        -9.832540512084961
      ],
      "type": "VEC3",
      "bufferView": 0,
      "byteOffset": 9180
    },
    {
      "name": "Cube.2-Mesh_0_normals",
      "componentType": 5126,
      "count": 24,
      "min": [
        -1,
        -1,
        -1
      ],
      "max": [
        1,
        1,
        1
      ],
      "type": "VEC3",
      "bufferView": 1,
      "byteOffset": 9180
    },
    {
      "name": "Cube.2-Mesh_0_texcoords",
      "componentType": 5126,
      "count": 24,
      "min": [
        0,
        1
      ],
      "max": [
        1,
        2
      ],
      "type": "VEC2",
      "bufferView": 2,
      "byteOffset": 6120
    },
    {
      "name": "Cube.2-Mesh_0_indices",
      "componentType": 5123,
      "count": 36,
      "min": [
        0
      ],
      "max": [
        23
      ],
      "type": "SCALAR",
      "bufferView": 3,
      "byteOffset": 7488
    },
    {
      "name": "Sphere.1-Mesh_0_positions",
      "componentType": 5126,
      "count": 323,
      "min": [
        20.426244735717773,
        -0.5,
        6.886068820953369
      ],
      "max": [
        21.426244735717773,
        0.5,
        7.886068820953369
      ],
      "type": "VEC3",
      "bufferView": 0,
      "byteOffset": 9468
    },
    {
      "name": "Sphere.1-Mesh_0_normals",
      "componentType": 5126,
      "count": 323,
      "min": [
        -1,
        -1,
        -1
      ],
      "max": [
        1,
        1,
        1
      ],
      "type": "VEC3",
      "bufferView": 1,
      "byteOffset": 9468
    },
    {
      "name": "Sphere.1-Mesh_0_texcoords",
      "componentType": 5126,
      "count": 323,
      "min": [
        0,
        1
      ],
      "max": [
        1,
        2
      ],
      "type": "VEC2",
      "bufferView": 2,
      "byteOffset": 6312
    },
    {
      "name": "Sphere.1-Mesh_0_indices",
      "componentType": 5123,
      "count": 1584,
      "min": [
        0
      ],
      "max": [
        322
      ],
      "type": "SCALAR",
      "bufferView": 3,
      "byteOffset": 7560
    },
    {
      "name": "Cone.1-Mesh_0_positions",
      "componentType": 5126,
      "count": 442,
      "min": [
        20.426244735717773,
        -0.5,
        3.6811025142669678
      ],
      "max": [
        21.426244735717773,
        0.5,
        4.681102752685547
      ],
      "type": "VEC3",
      "bufferView": 0,
      "byteOffset": 13344
    },
    {
      "name": "Cone.1-Mesh_0_normals",
      "componentType": 5126,
      "count": 442,
      "min": [
        -0.8944271802902222,
        -1,
        -0.8944271802902222
      ],
      "max": [
        0.8944271802902222,
        0.44721364974975586,
        0.8944271802902222
      ],
      "type": "VEC3",
      "bufferView": 1,
      "byteOffset": 13344
    },
    {
      "name": "Cone.1-Mesh_0_texcoords",
      "componentType": 5126,
      "count": 442,
      "min": [
        0,
        1
      ],
      "max": [
        1,
        2
      ],
      "type": "VEC2",
      "bufferView": 2,
      "byteOffset": 8896
    },
    {
      "name": "Cone.1-Mesh_0_indices",
      "componentType": 5123,
      "count": 2160,
      "min": [
        0
      ],
      "max": [
        441
      ],
      "type": "SCALAR",
      "bufferView": 3,
      "byteOffset": 10728
    },
    {
      "name": "Cube.1-Mesh_0_positions",
      "componentType": 5126,
      "count": 24,
      "min": [
        20.426244735717773,
        -0.5,
        10.212504386901855
      ],
      "max": [
        21.426244735717773,
        0.5,
        11.212504386901855
      ],
      "type": "VEC3",
      "bufferView": 0,
      "byteOffset": 18648
    },
    {
      "name": "Cube.1-Mesh_0_normals",
      "componentType": 5126,
      "count": 24,
      "min": [
        -1,
        -1,
        -1
      ],
      "max": [
        1,
        1,
        1
      ],
      "type": "VEC3",
      "bufferView": 1,
      "byteOffset": 18648
    },
    {
      "name": "Cube.1-Mesh_0_texcoords",
      "componentType": 5126,
      "count": 24,
      "min": [
        0,
        1
      ],
      "max": [
        1,
        2
      ],
      "type": "VEC2",
      "bufferView": 2,
      "byteOffset": 12432
    },
    {
      "name": "Cube.1-Mesh_0_indices",
      "componentType": 5123,
      "count": 36,
      "min": [
        0
      ],
      "max": [
        23
      ],
      "type": "SCALAR",
      "bufferView": 3,
      "byteOffset": 15048
    },
    {
      "name": "Sphere-Mesh_0_positions",
      "componentType": 5126,
      "count": 323,
      "min": [
        -0.5,
        -0.5,
        -0.5
      ],
      "max": [
        0.5,
        0.5,
        0.5
      ],
      "type": "VEC3",
      "bufferView": 0,
      "byteOffset": 18936
    },
    {
      "name": "Sphere-Mesh_0_normals",
      "componentType": 5126,
      "count": 323,
      "min": [
        -1,
        -1,
        -1
      ],
      "max": [
        1,
        1,
        1
      ],
      "type": "VEC3",
      "bufferView": 1,
      "byteOffset": 18936
    },
    {
      "name": "Sphere-Mesh_0_texcoords",
      "componentType": 5126,
      "count": 323,
      "min": [
        0,
        1
      ],
      "max": [
        1,
        2
      ],
      "type": "VEC2",
      "bufferView": 2,
      "byteOffset": 12624
    },
    {
      "name": "Sphere-Mesh_0_indices",
      "componentType": 5123,
      "count": 1584,
      "min": [
        0
      ],
      "max": [
        322
      ],
      "type": "SCALAR",
      "bufferView": 3,
      "byteOffset": 15120
    },
    {
      "name": "Cone-Mesh_0_positions",
      "componentType": 5126,
      "count": 442,
      "min": [
        -0.5,
        -0.5,
        -3.7049663066864014
      ],
      "max": [
        0.5,
        0.5,
        -2.7049663066864014
      ],
      "type": "VEC3",
      "bufferView": 0,
      "byteOffset": 22812
    },
    {
      "name": "Cone-Mesh_0_normals",
      "componentType": 5126,
      "count": 442,
      "min": [
        -0.8944271802902222,
        -1,
        -0.8944271802902222
      ],
      "max": [
        0.8944271802902222,
        0.44721364974975586,
        0.8944271802902222
      ],
      "type": "VEC3",
      "bufferView": 1,
      "byteOffset": 22812
    },
    {
      "name": "Cone-Mesh_0_texcoords",
      "componentType": 5126,
      "count": 442,
      "min": [
        0,
        1
      ],
      "max": [
        1,
        2
      ],
      "type": "VEC2",
      "bufferView": 2,
      "byteOffset": 15208
    },
    {
      "name": "Cone-Mesh_0_indices",
      "componentType": 5123,
      "count": 2160,
      "min": [
        0
      ],
      "max": [
        441
      ],
      "type": "SCALAR",
      "bufferView": 3,
      "byteOffset": 18288
    },
    {
      "name": "Cube-Mesh_0_positions",
      "componentType": 5126,
      "count": 24,
      "min": [
        -0.5,
        -0.5,
        2.8264360427856445
      ],
      "max": [
        0.5,
        0.5,
        3.8264360427856445
      ],
      "type": "VEC3",
      "bufferView": 0,
      "byteOffset": 28116
    },
    {
      "name": "Cube-Mesh_0_normals",
      "componentType": 5126,
      "count": 24,
      "min": [
        -1,
        -1,
        -1
      ],
      "max": [
        1,
        1,
        1
      ],
      "type": "VEC3",
      "bufferView": 1,
      "byteOffset": 28116
    },
    {
      "name": "Cube-Mesh_0_texcoords",
      "componentType": 5126,
      "count": 24,
      "min": [
        0,
        1
      ],
      "max": [
        1,
        2
      ],
      "type": "VEC2",
      "bufferView": 2,
      "byteOffset": 18744
    },
    {
      "name": "Cube-Mesh_0_indices",
      "componentType": 5123,
      "count": 36,
      "min": [
        0
      ],
      "max": [
        23
      ],
      "type": "SCALAR",
      "bufferView": 3,
      "byteOffset": 22608
    }
  ],
  "asset": {
    "generator": "obj2gltf",
    "version": "2.0"
  },
  "buffers": [
    {
      "name": "Scene",
      "byteLength": 98424,
      "uri": "data:application/octet-stream;base64,"
    }
  ],
  "bufferViews": [
    {
      "name": "bufferView_0",
      "buffer": 0,
      "byteLength": 28404,
      "byteOffset": 0,
      "byteStride": 12,
      "target": 34962
    },
    {
      "name": "bufferView_1",
      "buffer": 0,
      "byteLength": 28404,
      "byteOffset": 28404,
      "byteStride": 12,
      "target": 34962
    },
    {
      "name": "bufferView_2",
      "buffer": 0,
      "byteLength": 18936,
      "byteOffset": 56808,
      "byteStride": 8,
      "target": 34962
    },
    {
      "name": "bufferView_3",
      "buffer": 0,
      "byteLength": 22680,
      "byteOffset": 75744,
      "target": 34963
    }
  ],
  "materials": [
    {
      "name": "Mat.1",
      "pbrMetallicRoughness": {
        "baseColorFactor": [
          0.81999999284744,
          0.07379999756813,
          0.12354666739702,
          1
        ],
        "metallicFactor": 0,
        "roughnessFactor": 0.9
      },
      "emissiveFactor": [
        0,
        0,
        0
      ],
      "alphaMode": "OPAQUE",
      "doubleSided": false
    },
    {
      "name": "Mat.2",
      "pbrMetallicRoughness": {
        "baseColorFactor": [
          0.04800000041723,
          0.26106667518616,
          0.80000001192093,
          1
        ],
        "metallicFactor": 0,
        "roughnessFactor": 0.9
      },
      "emissiveFactor": [
        0,
        0,
        0
      ],
      "alphaMode": "OPAQUE",
      "doubleSided": false
    },
    {
      "name": "Mat",
      "pbrMetallicRoughness": {
        "baseColorFactor": [
          0,
          0.80000001192093,
          0.02666666731238,
          1
        ],
        "metallicFactor": 0,
        "roughnessFactor": 0.9
      },
      "emissiveFactor": [
        0,
        0,
        0
      ],
      "alphaMode": "OPAQUE",
      "doubleSided": false
    }
  ],
  "meshes": [
    {
      "name": "Sphere.2-Mesh",
      "primitives": [
        {
          "attributes": {
            "POSITION": 0,
            "NORMAL": 1,
            "TEXCOORD_0": 2
          },
          "indices": 3,
          "material": 0,
          "mode": 4
        }
      ]
    },
    {
      "name": "Cone.2-Mesh",
      "primitives": [
        {
          "attributes": {
            "POSITION": 4,
            "NORMAL": 5,
            "TEXCOORD_0": 6
          },
          "indices": 7,
          "material": 0,
          "mode": 4
        }
      ]
    },
    {
      "name": "Cube.2-Mesh",
      "primitives": [
        {
          "attributes": {
            "POSITION": 8,
            "NORMAL": 9,
            "TEXCOORD_0": 10
          },
          "indices": 11,
          "material": 0,
          "mode": 4
        }
      ]
    },
    {
      "name": "Sphere.1-Mesh",
      "primitives": [
        {
          "attributes": {
            "POSITION": 12,
            "NORMAL": 13,
            "TEXCOORD_0": 14
          },
          "indices": 15,
          "material": 1,
          "mode": 4
        }
      ]
    },
    {
      "name": "Cone.1-Mesh",
      "primitives": [
        {
          "attributes": {
            "POSITION": 16,
            "NORMAL": 17,
            "TEXCOORD_0": 18
          },
          "indices": 19,
          "material": 1,
          "mode": 4
        }
      ]
    },
    {
      "name": "Cube.1-Mesh",
      "primitives": [
        {
          "attributes": {
            "POSITION": 20,
            "NORMAL": 21,
            "TEXCOORD_0": 22
          },
          "indices": 23,
          "material": 1,
          "mode": 4
        }
      ]
    },
    {
      "name": "Sphere-Mesh",
      "primitives": [
        {
          "attributes": {
            "POSITION": 24,
            "NORMAL": 25,
            "TEXCOORD_0": 26
          },
          "indices": 27,
          "material": 2,
          "mode": 4
        }
      ]
    },
    {
      "name": "Cone-Mesh",
      "primitives": [
        {
          "attributes": {
            "POSITION": 28,
            "NORMAL": 29,
            "TEXCOORD_0": 30
          },
          "indices": 31,
          "material": 2,
          "mode": 4
        }
      ]
    },
    {
      "name": "Cube-Mesh",
      "primitives": [
        {
          "attributes": {
            "POSITION": 32,
            "NORMAL": 33,
            "TEXCOORD_0": 34
          },
          "indices": 35,
          "material": 2,
          "mode": 4
        }
      ]
    }
  ],
  "nodes": [
    {
      "name": "Sphere.2",
      "mesh": 0
    },
    {
      "name": "Cone.2",
      "mesh": 1
    },
    {
      "name": "Cube.2",
      "mesh": 2
    },
    {
      "name": "Sphere.1",
      "mesh": 3
    },
    {
      "name": "Cone.1",
      "mesh": 4
    },
    {
      "name": "Cube.1",
      "mesh": 5
    },
    {
      "name": "Sphere",
      "mesh": 6
    },
    {
      "name": "Cone",
      "mesh": 7
    },
    {
      "name": "Cube",
      "mesh": 8
    }
  ],
  "scene": 0,
  "scenes": [
    {
      "nodes": [
        0,
        1,
        2,
        3,
        4,
        5,
        6,
        7,
        8
      ]
    }
  ]
}
